<svg xmlns="http://www.w3.org/2000/svg" width="960" height="715" viewBox="0 0 960 715" fill="none"><path d="M300 0H900L600 715H0L300 0Z" fill="#B6E925"></path><path d="M1040 0H1340L1040 715H740L1040 0Z" fill="#B6E925"></path><path d="M145 0H105C96.7188 0 90 6.71875 90 15V55C90 63.2812 96.7188 70 105 70H130V90C130 101.031 121.031 110 110 110H107.5C103.344 110 100 113.344 100 117.5V132.5C100 136.656 103.344 140 107.5 140H110C137.625 140 160 117.625 160 90V15C160 6.71875 153.281 0 145 0ZM55 0H15C6.71875 0 0 6.71875 0 15V55C0 63.2812 6.71875 70 15 70H40V90C40 101.031 31.0312 110 20 110H17.5C13.3437 110 10 113.344 10 117.5V132.5C10 136.656 13.3437 140 17.5 140H20C47.625 140 70 117.625 70 90V15C70 6.71875 63.2812 0 55 0Z" fill="#B6E925"></path></svg>