<svg width="132" height="34" viewBox="0 0 132 34" fill="none" xmlns="http://www.w3.org/2000/svg">
<path d="M12.7985 0.493286H25.597L12.7985 33.9662H0L12.7985 0.493286Z" fill="#B6E925"/>
<path d="M25.6938 15.9424H38.0001L30.6163 33.9663H18.3101L25.6938 15.9424Z" fill="#B6E925"/>
<path d="M49.92 4.08H53.952L59.264 16.56V4.08H64V30H60.128L54.816 16.56V30H49.92V4.08ZM73.6095 30.384C71.0495 30.384 69.2255 29.6053 68.1375 28.048C67.0495 26.4907 66.5055 24.2827 66.5055 21.424V12.72C66.5055 9.79733 67.0922 7.568 68.2655 6.032C69.4602 4.496 71.4655 3.728 74.2815 3.728C76.9908 3.728 78.9322 4.38933 80.1055 5.712C81.2788 7.03467 81.8655 8.90133 81.8655 11.312V12.976H76.2655V10.864C76.2655 9.84 76.1482 9.072 75.9135 8.56C75.6788 8.02667 75.1562 7.76 74.3455 7.76C73.5135 7.76 72.9695 8.048 72.7135 8.624C72.4788 9.2 72.3615 10 72.3615 11.024V23.024C72.3615 24.048 72.5108 24.8587 72.8095 25.456C73.1295 26.032 73.6948 26.32 74.5055 26.32C75.9988 26.32 76.7455 25.2 76.7455 22.96V19.92H74.4095V16.56H81.8975V30H78.1215L77.8015 27.856C76.9908 29.5413 75.5935 30.384 73.6095 30.384ZM84.4825 4.08H96.1305V7.984H90.2105V14.416H94.7225V18.384H90.2105V26.128H96.1945V30H84.4825V4.08ZM97.795 4.08H101.827L107.139 16.56V4.08H111.875V30H108.003L102.691 16.56V30H97.795V4.08ZM121.485 30.384C118.925 30.384 117.101 29.6053 116.013 28.048C114.925 26.4907 114.381 24.2827 114.381 21.424V12.72C114.381 9.79733 114.967 7.568 116.141 6.032C117.335 4.496 119.341 3.728 122.157 3.728C124.866 3.728 126.807 4.38933 127.981 5.712C129.154 7.03467 129.741 8.90133 129.741 11.312V12.976H124.141V10.864C124.141 9.84 124.023 9.072 123.789 8.56C123.554 8.02667 123.031 7.76 122.22 7.76C121.389 7.76 120.845 8.048 120.589 8.624C120.354 9.2 120.237 10 120.237 11.024V23.024C120.237 24.048 120.386 24.8587 120.685 25.456C121.005 26.032 121.57 26.32 122.381 26.32C123.874 26.32 124.621 25.2 124.621 22.96V19.92H122.285V16.56H129.773V30H125.997L125.677 27.856C124.866 29.5413 123.469 30.384 121.485 30.384Z" fill="white"/>
</svg>
