<svg xmlns="http://www.w3.org/2000/svg" width="179" height="100" viewBox="0 0 179 100" fill="none"><path d="M46.79 41.3898H48.79V55.3098H54.79V57.3098H46.79V41.3898ZM61.02 41.3898C62.2067 41.3898 63.3668 41.7417 64.3535 42.401C65.3402 43.0602 66.1092 43.9973 66.5633 45.0937C67.0174 46.19 67.1363 47.3964 66.9048 48.5603C66.6732 49.7242 66.1018 50.7933 65.2627 51.6324C64.4236 52.4715 63.3545 53.043 62.1906 53.2745C61.0267 53.506 59.8203 53.3872 58.7239 52.933C57.6276 52.4789 56.6905 51.7099 56.0312 50.7232C55.3719 49.7365 55.02 48.5765 55.02 47.3898C55.02 46.6018 55.1752 45.8216 55.4768 45.0937C55.7783 44.3657 56.2202 43.7043 56.7774 43.1471C57.3345 42.59 57.996 42.148 58.7239 41.8465C59.4519 41.545 60.2321 41.3898 61.02 41.3898ZM61.02 51.3898C61.8112 51.3898 62.5845 51.1552 63.2423 50.7156C63.9001 50.2761 64.4128 49.6514 64.7156 48.9205C65.0183 48.1896 65.0975 47.3853 64.9432 46.6094C64.7888 45.8335 64.4079 45.1208 63.8485 44.5613C63.2891 44.0019 62.5763 43.621 61.8004 43.4666C61.0245 43.3123 60.2202 43.3915 59.4893 43.6942C58.7584 43.997 58.1337 44.5097 57.6942 45.1675C57.2546 45.8253 57.02 46.5986 57.02 47.3898C57.0253 48.4472 57.4491 49.4594 58.1987 50.2053C58.9482 50.9511 59.9626 51.3698 61.02 51.3698V51.3898ZM57.02 55.3298H65.02V57.3298H57.02V55.3298ZM82.62 57.3298H80.62V55.8998C79.3302 56.8026 77.7944 57.2878 76.22 57.2898C74.8775 57.2988 73.5544 56.9697 72.3724 56.333C71.1905 55.6963 70.1878 54.7724 69.4567 53.6464C68.7256 52.5204 68.2897 51.2285 68.189 49.8897C68.0884 48.551 68.3263 47.2084 68.8807 45.9857C69.4352 44.7631 70.2885 43.6996 71.362 42.8933C72.4354 42.0871 73.6945 41.5639 75.0233 41.3721C76.352 41.1802 77.7077 41.3258 78.9654 41.7955C80.2231 42.2652 81.3423 43.0439 82.22 44.0598L80.75 45.3698C80.0825 44.6234 79.2387 44.056 78.2957 43.7192C77.3527 43.3825 76.3403 43.2871 75.351 43.4418C74.3617 43.5965 73.4268 43.9963 72.6316 44.6049C71.8364 45.2134 71.2061 46.0113 70.7982 46.9258C70.3903 47.8404 70.2178 48.8424 70.2964 49.8407C70.375 50.8389 70.7022 51.8017 71.2481 52.6411C71.7941 53.4805 72.5415 54.1699 73.4221 54.6466C74.3028 55.1232 75.2887 55.3718 76.29 55.3698C77.1211 55.3715 77.9427 55.1937 78.6986 54.8485C79.4546 54.5033 80.1271 53.9989 80.67 53.3698H75.27V51.3698H82.64L82.62 57.3298ZM89.98 41.4298C91.1667 41.4298 92.3268 41.7817 93.3135 42.4409C94.3002 43.1002 95.0692 44.0373 95.5233 45.1337C95.9774 46.23 96.0963 47.4364 95.8647 48.6003C95.6332 49.7642 95.0618 50.8333 94.2227 51.6724C93.3836 52.5115 92.3145 53.083 91.1506 53.3145C89.9867 53.546 88.7803 53.4272 87.6839 52.973C86.5876 52.5189 85.6505 51.7499 84.9912 50.7632C84.3319 49.7765 83.98 48.6165 83.98 47.4298C83.9747 46.6368 84.1267 45.8506 84.4271 45.1167C84.7275 44.3829 85.1704 43.7158 85.7302 43.1541C86.29 42.5925 86.9556 42.1474 87.6885 41.8445C88.4214 41.5417 89.2071 41.3871 90 41.3898L89.98 41.4298ZM89.98 51.4298C90.7712 51.4298 91.5445 51.1952 92.2023 50.7556C92.8601 50.3161 93.3728 49.6914 93.6756 48.9605C93.9783 48.2296 94.0575 47.4253 93.9032 46.6494C93.7488 45.8735 93.3679 45.1608 92.8085 44.6013C92.2491 44.0419 91.5363 43.661 90.7604 43.5066C89.9845 43.3523 89.1802 43.4315 88.4493 43.7342C87.7184 44.037 87.0937 44.5497 86.6542 45.2075C86.2146 45.8653 85.98 46.6386 85.98 47.4298C85.9958 48.4837 86.427 49.4887 87.1797 50.2265C87.9325 50.9643 88.946 51.3752 90 51.3698L89.98 51.4298ZM85.98 55.3698H93.98V57.3698H85.98V55.3698ZM98.11 41.3898H100.11V57.2898H98.11V41.3898ZM102.88 41.3898H104.88C104.983 41.3788 105.087 41.3788 105.19 41.3898C106.028 41.2989 106.875 41.3855 107.677 41.6438C108.479 41.9021 109.217 42.3265 109.844 42.8892C110.472 43.4519 110.973 44.1404 111.316 44.9098C111.66 45.6792 111.837 46.5122 111.837 47.3548C111.837 48.1973 111.66 49.0304 111.316 49.7998C110.973 50.5692 110.472 51.2576 109.844 51.8203C109.217 52.3831 108.479 52.8074 107.677 53.0657C106.875 53.3241 106.028 53.4106 105.19 53.3198H104.88V57.3198H102.88V41.3898ZM104.88 43.3898V51.2998H105.19C105.755 51.375 106.329 51.3286 106.875 51.1638C107.42 50.999 107.924 50.7195 108.353 50.3441C108.782 49.9687 109.125 49.5059 109.361 48.9869C109.596 48.4679 109.718 47.9046 109.718 47.3348C109.718 46.7649 109.596 46.2016 109.361 45.6826C109.125 45.1636 108.782 44.7009 108.353 44.3255C107.924 43.95 107.42 43.6705 106.875 43.5057C106.329 43.3409 105.755 43.2945 105.19 43.3698C105.081 43.3811 104.974 43.4046 104.87 43.4398L104.88 43.3898ZM119.29 42.5398L117.81 43.7098C117.555 43.443 117.229 43.2546 116.87 43.1668C116.511 43.079 116.135 43.0954 115.785 43.214C115.435 43.3327 115.127 43.5487 114.896 43.8367C114.664 44.1247 114.52 44.4727 114.48 44.8398V44.9998C114.48 45.8798 115.09 46.4698 116.28 46.5498C120.86 46.8298 122.96 48.9798 122.96 51.8198V51.9998C122.842 53.1238 122.403 54.1902 121.696 55.0722C120.99 55.9541 120.044 56.6145 118.973 56.9748C117.902 57.335 116.749 57.38 115.653 57.1043C114.557 56.8287 113.563 56.244 112.79 55.4198L114.32 54.2398C114.676 54.6214 115.111 54.9211 115.595 55.1179C116.078 55.3148 116.599 55.4041 117.12 55.3798C118.083 55.4305 119.029 55.1073 119.759 54.4774C120.49 53.8476 120.949 52.9599 121.04 51.9998V51.8598C121.04 49.1898 118.42 48.6998 116.15 48.4798C114.05 48.2798 112.54 46.9698 112.54 45.0798V44.9998C112.614 44.0158 113.063 43.0978 113.794 42.4353C114.526 41.7729 115.484 41.4165 116.47 41.4398C116.993 41.4243 117.513 41.5187 117.997 41.7168C118.481 41.9149 118.918 42.2123 119.28 42.5898L119.29 42.5398ZM130.79 55.2598C133.28 55.2598 135.25 52.5698 135.25 49.2598V41.2598H137.25V49.2598C137.25 53.6598 134.37 57.2098 130.83 57.2098C127.29 57.2098 124.41 53.6598 124.41 49.2598V41.2598H126.41V49.2598C126.33 52.6198 128.3 55.3098 130.78 55.3098L130.79 55.2598ZM152.6 57.2598H150.6V47.3598L145.99 53.3598L141.38 47.3598V57.2898H139.38V41.3898L145.98 50.0798L152.58 41.3898L152.6 57.2598Z" fill="#D2D2D2"></path><path d="M37.1901 39.0001C37.1901 37.5573 36.6169 36.1736 35.5967 35.1534C34.5765 34.1332 33.1928 33.5601 31.7501 33.5601C30.3073 33.5601 28.9236 34.1332 27.9034 35.1534C26.8832 36.1736 26.3101 37.5573 26.3101 39.0001V55.4501L30.7901 58.6601V66.4801H32.7101V58.6601L37.1901 55.4501V39.0001ZM35.2701 48.2001L32.7101 50.7601V48.3601L35.2701 45.8001V48.2001ZM28.2701 45.8001L30.8301 48.3601V50.7601L28.2701 48.2001V45.8001ZM35.2701 43.0801L31.7501 46.6001L28.2301 43.0001V40.6001L31.7501 44.1201L35.2701 40.6001V43.0801ZM31.7501 35.4801C32.5242 35.4835 33.2759 35.7406 33.89 36.212C34.5041 36.6834 34.9467 37.3431 35.1501 38.0901L31.7501 41.4801L28.3501 38.0901C28.546 37.3357 28.9854 36.667 29.6002 36.1879C30.2149 35.7087 30.9707 35.4459 31.7501 35.4401V35.4801ZM28.2301 54.4801V50.8801L30.7901 53.4401V56.3001L28.2301 54.4801ZM32.7101 56.3101V53.4401L35.2701 50.8801V54.4701L32.7101 56.3101Z" fill="#D2D2D2"></path></svg>