<svg xmlns="http://www.w3.org/2000/svg" width="178" height="100" viewBox="0 0 178 100" fill="none"><path d="M32.059 62.8248H57.709V37.1748H32.059V62.8248ZM52.772 47.5318H47.352V42.1118H52.772V47.5318ZM36.995 42.1118H42.418V52.4678H52.772V57.8878H36.995V42.1118ZM74.412 37.1748C71.8754 37.1748 69.3958 37.927 67.2868 39.3362C65.1777 40.7454 63.5339 42.7484 62.5632 45.0919C61.5925 47.4354 61.3385 50.014 61.8334 52.5018C62.3282 54.9896 63.5497 57.2748 65.3433 59.0685C67.1369 60.8621 69.4221 62.0835 71.9099 62.5784C74.3977 63.0732 76.9764 62.8193 79.3199 61.8486C81.6633 60.8779 83.6663 59.2341 85.0756 57.125C86.4848 55.0159 87.237 52.5364 87.237 49.9998C87.233 46.5996 85.8805 43.3398 83.4762 40.9355C81.0719 38.5313 77.8121 37.1788 74.412 37.1748ZM74.412 57.8878C72.8519 57.8878 71.3268 57.4252 70.0296 56.5584C68.7324 55.6917 67.7214 54.4598 67.1244 53.0184C66.5274 51.5771 66.3712 49.9911 66.6755 48.4609C66.9799 46.9308 67.7311 45.5253 68.8343 44.4221C69.9375 43.319 71.343 42.5677 72.8731 42.2634C74.4032 41.959 75.9892 42.1152 77.4306 42.7122C78.8719 43.3093 80.1038 44.3203 80.9706 45.6175C81.8373 46.9146 82.3 48.4397 82.3 49.9998C82.2968 52.0909 81.4647 54.0954 79.9861 55.574C78.5075 57.0526 76.503 57.8846 74.412 57.8878ZM133.131 37.1748C130.594 37.1746 128.115 37.9266 126.006 39.3357C123.896 40.7448 122.252 42.7478 121.281 45.0912C120.311 47.4346 120.057 50.0134 120.551 52.5012C121.046 54.9891 122.267 57.2744 124.061 59.0681C125.855 60.8618 128.14 62.0834 130.628 62.5783C133.115 63.0732 135.694 62.8193 138.038 61.8487C140.381 60.878 142.384 59.2342 143.793 57.1251C145.203 55.016 145.955 52.5364 145.955 49.9998C145.951 46.5998 144.599 43.3402 142.195 40.9359C139.79 38.5316 136.531 37.179 133.131 37.1748ZM133.131 57.8878C131.571 57.888 130.046 57.4256 128.748 56.5589C127.451 55.6923 126.44 54.4604 125.843 53.0191C125.246 51.5778 125.089 49.9917 125.393 48.4615C125.698 46.9314 126.449 45.5258 127.552 44.4225C128.655 43.3192 130.061 42.5679 131.591 42.2634C133.121 41.959 134.707 42.1152 136.148 42.7121C137.59 43.3091 138.822 44.3202 139.689 45.6174C140.555 46.9146 141.018 48.4397 141.018 49.9998C141.015 52.0907 140.183 54.095 138.704 55.5736C137.226 57.0522 135.222 57.8844 133.131 57.8878ZM103.771 37.1748C101.234 37.1748 98.7548 37.927 96.6458 39.3362C94.5367 40.7454 92.8929 42.7484 91.9222 45.0919C90.9515 47.4354 90.6975 50.014 91.1924 52.5018C91.6872 54.9896 92.9087 57.2748 94.7023 59.0685C96.4959 60.8621 98.7811 62.0835 101.269 62.5784C103.757 63.0732 106.335 62.8193 108.679 61.8486C111.022 60.8779 113.025 59.2341 114.435 57.125C115.844 55.0159 116.596 52.5364 116.596 49.9998C116.592 46.5996 115.24 43.3398 112.835 40.9355C110.431 38.5313 107.171 37.1788 103.771 37.1748ZM103.771 57.8878C102.317 57.8885 100.892 57.4876 99.6519 56.7293C98.4118 55.971 97.4054 54.8849 96.7437 53.5907C96.082 52.2965 95.7908 50.8446 95.9022 49.3954C96.0136 47.9461 96.5232 46.5558 97.3749 45.3779C98.2266 44.2001 99.3871 43.2804 100.729 42.7205C102.07 42.1606 103.54 41.9822 104.976 42.205C106.413 42.4279 107.759 43.0432 108.868 43.9832C109.977 44.9232 110.804 46.1513 111.259 47.5318H103.771V52.4678H111.259C110.738 54.0431 109.734 55.4145 108.39 56.3873C107.046 57.3602 105.43 57.8852 103.771 57.8878Z" fill="#D2D2D2"></path></svg>