<svg xmlns="http://www.w3.org/2000/svg" width="178" height="100" viewBox="0 0 178 100" fill="none"><path d="M53.7299 45.71C54.0899 45.71 54.2099 45.84 54.2099 46.19V54.11H58.2799C58.6299 54.11 58.7599 54.24 58.7599 54.59V55.29C58.7599 55.64 58.6299 55.77 58.2799 55.77H52.9199C52.5699 55.77 52.4299 55.64 52.4299 55.29V46.19C52.4299 45.84 52.5699 45.71 52.9199 45.71H53.7299Z" fill="#D2D2D2"></path><path d="M62.3101 49.2C62.3101 46.89 63.7701 45.5 66.3101 45.5C68.8501 45.5 70.3101 46.89 70.3101 49.2V52.28C70.3101 54.59 68.8401 55.98 66.3101 55.98C63.7801 55.98 62.3101 54.59 62.3101 52.28V49.2ZM68.6301 49.2C68.6301 47.9 67.8201 47.2 66.3601 47.2C64.9001 47.2 64.1001 47.91 64.1001 49.2V52.3C64.1001 53.61 64.9001 54.3 66.3601 54.3C67.8201 54.3 68.6301 53.58 68.6301 52.3V49.2Z" fill="#D2D2D2"></path><path d="M82.2199 50.26C82.6099 50.26 82.6999 50.39 82.6999 50.74V52.64C82.7105 53.0875 82.6208 53.5317 82.4374 53.9401C82.2539 54.3485 81.9815 54.7106 81.6399 55C80.7916 55.6755 79.722 56.0106 78.6399 55.94C76.0499 55.94 74.6399 54.55 74.6399 52.24V49.14C74.6399 46.86 76.0999 45.46 78.6399 45.46C80.6399 45.46 81.9399 46.25 82.4899 47.83C82.5207 47.8893 82.5372 47.9551 82.5381 48.0219C82.539 48.0888 82.5243 48.1549 82.4952 48.2151C82.4661 48.2753 82.4233 48.3279 82.3703 48.3686C82.3173 48.4094 82.2555 48.4372 82.1899 48.45L81.4099 48.72C81.0699 48.84 80.9299 48.77 80.8099 48.42C80.6442 47.9928 80.3409 47.6331 79.9479 47.3977C79.5549 47.1622 79.0947 47.0645 78.6399 47.12C77.1699 47.12 76.3699 47.83 76.3699 49.12V52.3C76.3699 53.61 77.1799 54.3 78.6399 54.3C80.0999 54.3 80.9999 53.63 80.9999 52.65V51.91H78.8299C78.4699 51.91 78.3399 51.77 78.3399 51.42V50.74C78.3399 50.39 78.4699 50.26 78.8299 50.26H82.2199Z" fill="#D2D2D2"></path><path d="M86.8301 49.2C86.8301 46.89 88.2901 45.5 90.8301 45.5C93.3701 45.5 94.8301 46.89 94.8301 49.2V52.28C94.8301 54.59 93.3601 55.98 90.8301 55.98C88.3001 55.98 86.8301 54.59 86.8301 52.28V49.2ZM93.1401 49.2C93.1401 47.9 92.3301 47.2 90.8801 47.2C89.4301 47.2 88.6101 47.91 88.6101 49.2V52.3C88.6101 53.61 89.4201 54.3 90.8801 54.3C92.3401 54.3 93.1401 53.58 93.1401 52.3V49.2Z" fill="#D2D2D2"></path><path d="M99.54 46C99.54 45.78 99.61 45.71 99.83 45.71H100.29C100.51 45.71 100.56 45.78 100.56 46V55.48C100.56 55.7 100.56 55.77 100.29 55.77H99.83C99.61 55.77 99.54 55.7 99.54 55.48V46Z" fill="#D2D2D2"></path><path d="M109.67 45.71C110.503 45.71 111.301 46.0408 111.89 46.6296C112.479 47.2185 112.81 48.0172 112.81 48.85C112.81 49.6827 112.479 50.4814 111.89 51.0703C111.301 51.6591 110.503 51.99 109.67 51.99H106.67V55.48C106.67 55.7 106.62 55.77 106.41 55.77H105.94C105.73 55.77 105.65 55.7 105.65 55.48V46C105.65 45.78 105.73 45.71 105.94 45.71H109.67ZM109.58 51C109.866 51 110.15 50.9436 110.414 50.834C110.679 50.7245 110.919 50.5639 111.121 50.3615C111.324 50.159 111.484 49.9187 111.594 49.6542C111.704 49.3897 111.76 49.1062 111.76 48.82C111.76 48.5337 111.704 48.2502 111.594 47.9857C111.484 47.7212 111.324 47.4809 111.121 47.2785C110.919 47.076 110.679 46.9155 110.414 46.8059C110.15 46.6963 109.866 46.64 109.58 46.64H106.58V51H109.58Z" fill="#D2D2D2"></path><path d="M120.62 45.5101C121.392 45.4249 122.171 45.591 122.841 45.9837C123.511 46.3764 124.037 46.9748 124.34 47.6901C124.42 47.8501 124.34 47.9801 124.18 48.0601L123.74 48.2601C123.56 48.3301 123.49 48.3201 123.38 48.1301C123.153 47.5993 122.764 47.1543 122.268 46.8594C121.772 46.5646 121.195 46.4353 120.62 46.4901C118.93 46.4901 118.01 47.1601 118.01 48.3601C118 48.7268 118.123 49.0847 118.357 49.3678C118.59 49.6508 118.918 49.8399 119.28 49.9001C119.818 50.0755 120.375 50.183 120.94 50.2201C121.623 50.2565 122.297 50.3947 122.94 50.6301C123.433 50.7859 123.857 51.1066 124.141 51.5382C124.425 51.9698 124.552 52.486 124.5 53.0001C124.5 54.8701 123.14 56.0001 120.64 56.0001C119.82 56.0939 118.993 55.9039 118.296 55.4617C117.599 55.0195 117.074 54.3519 116.81 53.5701C116.792 53.5344 116.783 53.4953 116.782 53.4556C116.781 53.4158 116.789 53.3763 116.806 53.34C116.822 53.3037 116.846 53.2715 116.876 53.2455C116.906 53.2196 116.942 53.2007 116.98 53.1901L117.42 53.0301C117.455 53.0159 117.492 53.0091 117.529 53.0101C117.567 53.0111 117.604 53.0199 117.637 53.0359C117.671 53.0519 117.701 53.0747 117.726 53.103C117.751 53.1312 117.769 53.1643 117.78 53.2001C118.004 53.765 118.401 54.244 118.916 54.5676C119.43 54.8913 120.034 55.0427 120.64 55.0001C122.53 55.0001 123.46 54.3401 123.46 53.0001C123.478 52.6478 123.37 52.3008 123.155 52.0206C122.941 51.7405 122.635 51.5454 122.29 51.4701C121.773 51.3157 121.239 51.2218 120.7 51.1901L119.62 51.0501C119.282 50.9783 118.948 50.8882 118.62 50.7801C118.296 50.6822 117.994 50.5226 117.73 50.3101C117.465 50.0699 117.256 49.7742 117.117 49.4441C116.979 49.1141 116.915 48.7576 116.93 48.4001C117 46.6501 118.31 45.5101 120.62 45.5101Z" fill="#D2D2D2"></path><path d="M129.89 52.35C129.933 53.0571 130.243 53.7214 130.759 54.2071C131.275 54.6928 131.957 54.9633 132.665 54.9633C133.374 54.9633 134.055 54.6928 134.571 54.2071C135.087 53.7214 135.398 53.0571 135.44 52.35V46C135.44 45.78 135.51 45.71 135.73 45.71H136.19C136.41 45.71 136.48 45.78 136.48 46V52.34C136.48 54.61 135.14 55.98 132.67 55.98C130.2 55.98 128.86 54.61 128.86 52.34V46C128.86 45.78 128.93 45.71 129.14 45.71H129.61C129.82 45.71 129.89 45.78 129.89 46V52.35Z" fill="#D2D2D2"></path><path d="M150.28 45.7102C150.5 45.7102 150.57 45.7802 150.57 46.0002V55.4802C150.57 55.7002 150.5 55.7702 150.28 55.7702H149.86C149.65 55.7702 149.58 55.7002 149.58 55.4802V49.7102C149.58 48.8707 149.637 48.0321 149.75 47.2002H149.69C149.378 47.9609 149.013 48.6993 148.6 49.4102L146.45 53.2002C146.424 53.266 146.378 53.3222 146.319 53.3615C146.26 53.4008 146.191 53.4212 146.12 53.4202H145.84C145.768 53.4206 145.698 53.3999 145.637 53.3609C145.577 53.3218 145.529 53.266 145.5 53.2002L143.32 49.3702C142.933 48.6695 142.599 47.9408 142.32 47.1902H142.26C142.362 48.0297 142.416 48.8745 142.42 49.7202V55.4802C142.42 55.7002 142.35 55.7702 142.13 55.7702H141.74C141.52 55.7702 141.45 55.7002 141.45 55.4802V46.0002C141.45 45.7802 141.52 45.7102 141.74 45.7102H142.1C142.182 45.7026 142.265 45.7206 142.336 45.7617C142.408 45.8029 142.465 45.8653 142.5 45.9402L146 52.1602L149.48 46.0002C149.59 45.7902 149.65 45.7602 149.87 45.7602L150.28 45.7102Z" fill="#D2D2D2"></path><path d="M35.94 53.5498V60.7798C35.94 61.0569 35.8299 61.3227 35.6339 61.5187C35.4379 61.7147 35.1721 61.8248 34.895 61.8248C34.6178 61.8248 34.352 61.7147 34.156 61.5187C33.9601 61.3227 33.85 61.0569 33.85 60.7798V53.5598C34.1409 53.7722 34.4898 53.8909 34.85 53.8998C35.2426 53.911 35.6273 53.7875 35.94 53.5498ZM44.84 51.4598C44.5747 51.4598 44.3204 51.5651 44.1329 51.7527C43.9453 51.9402 43.84 52.1945 43.84 52.4598V53.7198C43.84 53.9969 43.9501 54.2627 44.146 54.4587C44.342 54.6547 44.6078 54.7648 44.885 54.7648C45.1621 54.7648 45.4279 54.6547 45.6239 54.4587C45.8199 54.2627 45.93 53.9969 45.93 53.7198V52.5098C45.9377 52.3664 45.9146 52.223 45.862 52.0894C45.8094 51.9557 45.7286 51.835 45.6252 51.7354C45.5218 51.6358 45.3981 51.5596 45.2626 51.512C45.1271 51.4644 44.983 51.4466 44.84 51.4598ZM31.58 56.2898C31.2201 56.279 30.8718 56.1605 30.58 55.9498V63.1998C30.58 63.4782 30.6906 63.7453 30.8875 63.9422C31.0844 64.1391 31.3515 64.2498 31.63 64.2498C31.9084 64.2498 32.1755 64.1391 32.3724 63.9422C32.5693 63.7453 32.68 63.4782 32.68 63.1998V55.9998C32.3534 56.2108 31.9681 56.3124 31.58 56.2898ZM41.58 49.2898C41.4445 49.283 41.3091 49.3038 41.1819 49.351C41.0548 49.3983 40.9385 49.4708 40.8403 49.5644C40.7421 49.6579 40.6639 49.7705 40.6106 49.8952C40.5572 50.0199 40.5298 50.1541 40.53 50.2898V55.8598C40.53 56.1382 40.6406 56.4053 40.8375 56.6022C41.0344 56.7991 41.3015 56.9098 41.58 56.9098C41.8584 56.9098 42.1255 56.7991 42.3224 56.6022C42.5193 56.4053 42.63 56.1382 42.63 55.8598V50.3598C42.6379 50.2155 42.6145 50.0711 42.5614 49.9367C42.5082 49.8023 42.4265 49.681 42.322 49.5812C42.2174 49.4814 42.0925 49.4055 41.9557 49.3586C41.819 49.3118 41.6737 49.2951 41.53 49.3098L41.58 49.2898ZM38.26 51.4298C37.8833 51.4272 37.5166 51.3085 37.21 51.0898V58.3598C37.21 58.6382 37.3206 58.9053 37.5175 59.1022C37.7144 59.2991 37.9815 59.4098 38.26 59.4098C38.5384 59.4098 38.8055 59.2991 39.0024 59.1022C39.1993 58.9053 39.31 58.6382 39.31 58.3598V51.0998C38.9927 51.3361 38.6054 51.4593 38.21 51.4498L38.26 51.4298ZM29.31 56.9998V36.6898C29.3073 36.4422 29.2071 36.2057 29.0311 36.0315C28.8551 35.8574 28.6175 35.7598 28.37 35.7598H28.15C27.9024 35.7598 27.6648 35.8574 27.4888 36.0315C27.3128 36.2057 27.2126 36.4422 27.21 36.6898V56.9998C27.21 57.2491 27.309 57.4882 27.4853 57.6644C27.6616 57.8407 27.9007 57.9398 28.15 57.9398H28.37C28.6193 57.9398 28.8584 57.8407 29.0346 57.6644C29.2109 57.4882 29.31 57.2491 29.31 56.9998ZM31.69 55.5198H31.47C31.2207 55.5198 30.9816 55.4207 30.8053 55.2444C30.629 55.0682 30.53 54.8291 30.53 54.5798V39.1098C30.5326 38.8622 30.6328 38.6257 30.8088 38.4515C30.9848 38.2774 31.2224 38.1798 31.47 38.1798H31.69C31.9375 38.1798 32.1751 38.2774 32.3511 38.4515C32.5271 38.6257 32.6273 38.8622 32.63 39.1098V54.5998C32.63 54.8491 32.5309 55.0882 32.3546 55.2644C32.1784 55.4407 31.9393 55.5398 31.69 55.5398V55.5198ZM35 53.1398H34.77C34.5233 53.1398 34.2868 53.0418 34.1124 52.8674C33.9379 52.693 33.84 52.4564 33.84 52.2098V41.5098C33.8386 41.3868 33.8617 41.2648 33.9079 41.1508C33.954 41.0368 34.0223 40.9331 34.1088 40.8457C34.1953 40.7583 34.2982 40.6889 34.4117 40.6415C34.5252 40.5941 34.647 40.5698 34.77 40.5698H35C35.2475 40.5724 35.4841 40.6726 35.6582 40.8486C35.8323 41.0246 35.93 41.2622 35.93 41.5098V52.2098C35.93 52.4564 35.832 52.693 35.6576 52.8674C35.4832 53.0418 35.2466 53.1398 35 53.1398ZM38.31 50.6898H38.1C37.8524 50.6898 37.6148 50.5921 37.4388 50.418C37.2628 50.2439 37.1626 50.0073 37.16 49.7598V43.9998C37.1517 43.8714 37.17 43.7427 37.2135 43.6216C37.2571 43.5005 37.325 43.3897 37.4131 43.296C37.5013 43.2022 37.6077 43.1275 37.7258 43.0766C37.844 43.0257 37.9713 42.9995 38.1 42.9998H38.32C38.5693 42.9998 38.8084 43.0988 38.9846 43.2751C39.1609 43.4514 39.26 43.6905 39.26 43.9398V49.7398C39.2613 49.8641 39.2379 49.9874 39.1913 50.1026C39.1447 50.2178 39.0756 50.3226 38.9882 50.4109C38.9008 50.4993 38.7967 50.5694 38.682 50.6173C38.5673 50.6651 38.4443 50.6898 38.32 50.6898H38.31ZM41.63 48.5398H41.41C41.1607 48.5398 40.9216 48.4407 40.7453 48.2644C40.569 48.0882 40.47 47.8491 40.47 47.5998V46.1098C40.4726 45.8622 40.5728 45.6257 40.7488 45.4515C40.9248 45.2774 41.1624 45.1798 41.41 45.1798H41.63C41.8775 45.1798 42.1151 45.2774 42.2911 45.4515C42.4671 45.6257 42.5673 45.8622 42.57 46.1098V47.5998C42.57 47.8473 42.4723 48.0849 42.2982 48.2609C42.1241 48.4369 41.8875 48.5371 41.64 48.5398H41.63Z" fill="#D2D2D2"></path></svg>