<svg xmlns="http://www.w3.org/2000/svg" width="179" height="100" viewBox="0 0 179 100" fill="none"><path d="M89.033 55.3739H83.913V41.6859H89.033V55.3739ZM84.413 54.8739H88.533V42.1859H84.413V54.8739ZM96.157 55.3739H91.14V41.6859H101.622C103.124 41.5643 104.619 41.9858 105.836 42.8739C106.36 43.3532 106.766 43.9471 107.022 44.6092C107.279 45.2713 107.379 45.9837 107.315 46.6909C107.39 47.9128 107.001 49.118 106.226 50.0659C105.309 51.1179 103.783 51.6599 101.691 51.6789C101.164 51.6929 97.215 51.6789 96.16 51.6789L96.157 55.3739ZM91.637 54.8739H95.657V51.1739H95.908C95.959 51.1739 101.086 51.1899 101.679 51.1739C103.628 51.1569 105.029 50.6739 105.848 49.7309C106.538 48.8733 106.88 47.788 106.808 46.6899C106.869 46.0562 106.784 45.417 106.559 44.8216C106.333 44.2263 105.974 43.6908 105.508 43.2569C104.38 42.447 102.999 42.0668 101.615 42.1849H91.64L91.637 54.8739ZM100.56 48.6039H95.623V44.8779H100.593C100.945 44.8292 101.304 44.8703 101.636 44.9974C101.968 45.1245 102.263 45.3334 102.493 45.6049C102.701 45.9518 102.8 46.3538 102.775 46.7579C102.794 47.133 102.713 47.5063 102.54 47.8399C102.303 48.1257 101.996 48.3458 101.649 48.4789C101.303 48.612 100.927 48.6537 100.56 48.5999V48.6039ZM96.123 48.1039H100.56C101.38 48.1039 101.888 47.9329 102.113 47.5809C102.237 47.325 102.293 47.0416 102.276 46.7579C102.298 46.4599 102.233 46.162 102.09 45.8999L102.084 45.8909C101.846 45.5409 101.373 45.3779 100.593 45.3779H96.123V48.1039ZM116.44 55.5759C111.95 55.5759 109.27 54.4609 108.249 52.1679C108.082 51.725 107.968 51.2637 107.911 50.7939L107.867 50.5059H113.209L113.244 50.7159C113.285 50.9291 113.375 51.1298 113.508 51.3019C113.719 51.5569 114.423 51.9849 116.759 51.9849C119.567 51.9849 119.567 51.4919 119.567 51.2269C119.567 50.7799 119.242 50.6269 116.952 50.3829L116.517 50.3419C115.655 50.2609 114.565 50.1579 114.067 50.1149C109.867 49.7349 107.992 48.4299 107.992 45.8849C107.992 43.2119 111.183 41.4849 116.122 41.4849C120.151 41.4849 122.747 42.5469 123.836 44.6439C124.094 45.1316 124.268 45.6599 124.349 46.2059L124.384 46.4869H119.036L119.014 46.2609C118.993 46.0842 118.918 45.9185 118.798 45.7869C118.598 45.5189 117.966 45.0759 116.004 45.0759C113.595 45.0759 113.263 45.3839 113.263 45.7159C113.263 46.1589 114.024 46.3159 116.463 46.5769C117.48 46.6599 119.115 46.8279 119.675 46.8959C123.196 47.2779 124.767 48.5509 124.767 51.0249C124.768 53.0999 123.323 55.5759 116.44 55.5759ZM108.451 51.0059C108.501 51.3356 108.587 51.6589 108.708 51.9699C109.638 54.0589 112.168 55.0759 116.44 55.0759C120.012 55.0759 124.271 54.3759 124.271 51.0249C124.271 48.8319 122.881 47.7459 119.622 47.3929C119.062 47.3249 117.437 47.1579 116.422 47.0739C113.822 46.7919 112.765 46.6419 112.765 45.7159C112.765 44.7579 113.904 44.5759 116.006 44.5759C117.667 44.5759 118.74 44.8759 119.195 45.4809C119.319 45.6299 119.413 45.8018 119.471 45.9869H123.805C123.718 45.6001 123.58 45.2266 123.395 44.8759C122.395 42.9569 119.952 41.9849 116.124 41.9849C111.489 41.9849 108.494 43.5159 108.494 45.8849C108.494 48.1449 110.175 49.2609 114.113 49.6169C114.613 49.6599 115.702 49.7629 116.566 49.8449L117.004 49.8859C119.131 50.1099 120.069 50.2499 120.069 51.2269C120.069 52.2789 118.856 52.4849 116.761 52.4849C114.823 52.4849 113.599 52.1939 113.126 51.6209C112.98 51.4381 112.87 51.2295 112.802 51.0059H108.451ZM134.267 55.5589C129.047 55.5589 126.167 53.4479 126.167 49.6139V41.6859H131.219V49.6139C131.219 50.9289 132.396 51.6829 134.447 51.6829C136.407 51.6829 137.624 50.8959 137.624 49.6309V41.6859H142.624V50.0339C142.629 53.5449 139.58 55.5589 134.264 55.5589H134.267ZM126.667 42.1859V49.6139C126.667 54.3519 131.425 55.0589 134.267 55.0589C137.205 55.0589 142.132 54.4059 142.132 50.0339V42.1859H138.132V49.6309C138.132 51.1809 136.688 52.1829 134.455 52.1829C132.121 52.1829 130.727 51.2229 130.727 49.6139V42.1859H126.667ZM163.812 55.3739H159.044V49.1939L156.34 55.3739H152.181L149.505 49.2059V55.3739H144.72V41.6859H151.014L154.284 49.2329L157.712 41.6859H163.818L163.812 55.3739ZM159.544 54.8739H163.312V42.1859H158.03L154.268 50.4649L150.682 42.1859H145.216V54.8739H149.001V46.7999L152.501 54.8769H156.001L159.538 46.8119L159.544 54.8739ZM19.394 41.9359H14.84V55.1239H27.424V51.6129H19.394V41.9359ZM36.616 41.6359C30.803 41.6359 27.746 44.3909 27.746 48.4359C27.746 53.0059 30.955 55.3239 36.616 55.3239C42.848 55.3239 45.469 52.6359 45.469 48.4359C45.469 44.1709 42.512 41.6339 36.616 41.6339V41.6359ZM36.599 45.0629C36.9947 45.061 37.3901 45.084 37.783 45.1319L32.692 50.2229C32.451 49.6779 32.3335 49.0865 32.348 48.4909C32.348 46.4219 33.39 45.0609 36.599 45.0609V45.0629ZM36.616 51.9509C36.2347 51.9525 35.8537 51.9312 35.475 51.8869L40.575 46.7869C40.8069 47.3228 40.9179 47.9032 40.9 48.4869C40.9 50.4999 39.94 51.9489 36.616 51.9489V51.9509ZM54.492 50.1509H59.179C59.11 50.4761 58.9662 50.7809 58.759 51.0409C57.7873 51.8325 56.5471 52.2177 55.298 52.1159C54.6692 52.1831 54.0333 52.1145 53.4334 51.9145C52.8335 51.7145 52.2836 51.3879 51.821 50.9569C51.3471 50.2618 51.1219 49.427 51.182 48.5879C51.1053 47.7086 51.3501 46.8314 51.871 46.1189C52.526 45.3789 53.635 45.0599 55.265 45.0599C56.3021 44.974 57.3379 45.2403 58.205 45.8159C58.4783 46.0329 58.6825 46.3248 58.793 46.6559H63.14C63.1083 46.1103 62.9772 45.5752 62.753 45.0769C61.712 42.9599 59.292 41.6999 55.177 41.6999C51.598 41.6999 49.196 42.7919 47.869 44.4389C46.9926 45.6282 46.5427 47.0783 46.592 48.5549C46.5353 50.0648 46.9735 51.5519 47.84 52.7899C49.151 54.4899 51.486 55.3259 54.292 55.3259C56.1575 55.456 58.0103 54.9335 59.533 53.8479L59.651 55.1239H63.262V47.3119H54.492V50.1509ZM73.511 41.6329C67.699 41.6329 64.641 44.3879 64.641 48.4329C64.641 53.0029 67.849 55.3209 73.511 55.3209C79.744 55.3209 82.365 52.6329 82.365 48.4329C82.365 44.1709 79.408 41.6339 73.511 41.6339V41.6329ZM73.495 45.0599C73.8803 45.0587 74.2653 45.0808 74.648 45.1259L69.577 50.1999C69.3436 49.661 69.23 49.0779 69.244 48.4909C69.24 46.4219 70.286 45.0609 73.495 45.0609V45.0599ZM73.511 51.9479C73.1196 51.9495 72.7285 51.9268 72.34 51.8799L77.457 46.7619C77.6977 47.3049 77.8128 47.8952 77.794 48.4889C77.796 50.4999 76.84 51.9489 73.511 51.9489V51.9479Z" fill="#D2D2D2"></path></svg>