<svg xmlns="http://www.w3.org/2000/svg" width="179" height="100" viewBox="0 0 179 100" fill="none"><path d="M39.5701 54.79H42.5701V69.5H39.5701V54.79Z" fill="#D2D2D2"></path><path d="M44.3101 64.4599C44.3081 63.4033 44.6196 62.3699 45.2051 61.4904C45.7907 60.6109 46.624 59.9249 47.5996 59.5192C48.5752 59.1135 49.6492 59.0063 50.6857 59.2113C51.7222 59.4162 52.6746 59.924 53.4225 60.6704C54.1703 61.4168 54.6799 62.3683 54.8867 63.4044C55.0936 64.4405 54.9884 65.5147 54.5845 66.4911C54.1806 67.4674 53.4962 68.302 52.6178 68.8892C51.7395 69.4764 50.7066 69.7899 49.6501 69.7899C48.9474 69.7979 48.2502 69.6656 47.5994 69.4007C46.9486 69.1358 46.3571 68.7436 45.8598 68.2472C45.3625 67.7508 44.9692 67.1601 44.7031 66.5098C44.437 65.8594 44.3034 65.1625 44.3101 64.4599ZM51.9701 64.4599C51.9583 64.0038 51.8122 63.5612 51.5502 63.1877C51.2882 62.8141 50.9219 62.5261 50.4971 62.3597C50.0723 62.1933 49.6078 62.1558 49.1618 62.252C48.7158 62.3482 48.308 62.5737 47.9895 62.9004C47.6711 63.2272 47.456 63.6405 47.3712 64.0889C47.2865 64.5372 47.3358 65.0006 47.513 65.421C47.6902 65.8414 47.9875 66.2003 48.3676 66.4527C48.7477 66.705 49.1938 66.8397 49.6501 66.8399C49.9622 66.8486 50.2728 66.7926 50.5622 66.6752C50.8517 66.5579 51.1136 66.3819 51.3316 66.1583C51.5496 65.9347 51.7189 65.6683 51.8288 65.376C51.9387 65.0836 51.9868 64.7717 51.9701 64.4599Z" fill="#D2D2D2"></path><path d="M67.05 59.42V69C67.05 72.39 64.4 73.82 61.72 73.82C60.7776 73.8901 59.8341 73.6995 58.9928 73.2691C58.1514 72.8387 57.4447 72.1852 56.95 71.38L59.53 69.89C59.7348 70.3026 60.0587 70.6443 60.4599 70.8708C60.861 71.0972 61.3209 71.198 61.78 71.16C62.0822 71.2103 62.3918 71.1906 62.6851 71.1024C62.9784 71.0141 63.2475 70.8597 63.4717 70.651C63.6958 70.4423 63.8691 70.1849 63.978 69.8986C64.087 69.6124 64.1287 69.3049 64.1 69V68.07C63.7473 68.5039 63.2973 68.8486 62.7865 69.0762C62.2758 69.3038 61.7185 69.4079 61.16 69.38C59.8021 69.38 58.4998 68.8405 57.5397 67.8804C56.5795 66.9202 56.04 65.6179 56.04 64.26C56.04 62.9021 56.5795 61.5998 57.5397 60.6396C58.4998 59.6794 59.8021 59.14 61.16 59.14C61.7182 59.1145 62.2747 59.2196 62.7851 59.447C63.2955 59.6745 63.7457 60.0179 64.1 60.45V59.45L67.05 59.42ZM64.1 64.26C64.12 63.7736 63.994 63.2924 63.7383 62.8782C63.4826 62.464 63.1089 62.1358 62.6652 61.9357C62.2214 61.7356 61.728 61.6728 61.2483 61.7553C60.7686 61.8379 60.3245 62.062 59.9732 62.3989C59.6219 62.7358 59.3794 63.1701 59.2768 63.646C59.1743 64.1218 59.2164 64.6174 59.3978 65.0691C59.5792 65.5208 59.8915 65.908 60.2946 66.1808C60.6978 66.4536 61.1733 66.5996 61.66 66.6C61.9778 66.6225 62.2967 66.5781 62.5962 66.4698C62.8957 66.3615 63.1692 66.1917 63.3991 65.9712C63.629 65.7508 63.8101 65.4846 63.9309 65.1899C64.0516 64.8951 64.1092 64.5784 64.1 64.26Z" fill="#D2D2D2"></path><path d="M68.78 64.4599C68.778 63.4033 69.0896 62.3699 69.6751 61.4904C70.2607 60.6109 71.094 59.9249 72.0696 59.5192C73.0451 59.1135 74.1191 59.0063 75.1557 59.2113C76.1922 59.4162 77.1446 59.924 77.8924 60.6704C78.6402 61.4168 79.1498 62.3683 79.3567 63.4044C79.5635 64.4405 79.4584 65.5147 79.0545 66.4911C78.6506 67.4674 77.9662 68.302 77.0878 68.8892C76.2094 69.4764 75.1766 69.7899 74.12 69.7899C73.4174 69.7979 72.7202 69.6656 72.0694 69.4007C71.4185 69.1358 70.8271 68.7436 70.3298 68.2472C69.8324 67.7508 69.4392 67.1601 69.1731 66.5098C68.9069 65.8594 68.7733 65.1625 68.78 64.4599ZM76.44 64.4599C76.4282 64.0038 76.2822 63.5612 76.0202 63.1877C75.7582 62.8141 75.3919 62.5261 74.9671 62.3597C74.5422 62.1933 74.0778 62.1558 73.6318 62.252C73.1857 62.3482 72.778 62.5737 72.4595 62.9004C72.141 63.2272 71.926 63.6405 71.8412 64.0889C71.7564 64.5372 71.8057 65.0006 71.983 65.421C72.1602 65.8414 72.4574 66.2003 72.8376 66.4527C73.2177 66.705 73.6638 66.8397 74.12 66.8399C74.4305 66.8458 74.7389 66.7877 75.026 66.6691C75.313 66.5506 75.5726 66.3741 75.7884 66.1508C76.0042 65.9275 76.1717 65.6621 76.2803 65.3711C76.389 65.0802 76.4366 64.77 76.42 64.4599H76.44Z" fill="#D2D2D2"></path><path d="M80.8501 56.7199C80.8501 56.3599 80.9568 56.0081 81.1568 55.7088C81.3568 55.4095 81.6411 55.1762 81.9736 55.0384C82.3062 54.9007 82.6721 54.8646 83.0252 54.9349C83.3782 55.0051 83.7025 55.1784 83.957 55.433C84.2116 55.6875 84.3849 56.0118 84.4551 56.3648C84.5253 56.7179 84.4893 57.0838 84.3516 57.4164C84.2138 57.7489 83.9805 58.0332 83.6812 58.2332C83.3819 58.4332 83.0301 58.5399 82.6701 58.5399C82.1882 58.5373 81.7268 58.3447 81.3861 58.0039C81.0453 57.6632 80.8527 57.2018 80.8501 56.7199ZM81.1601 59.4199H84.1601V69.4999H81.1601V59.4199Z" fill="#D2D2D2"></path><path d="M97.2399 64.4601C97.2763 65.1265 97.1805 65.7934 96.9581 66.4225C96.7357 67.0517 96.391 67.6306 95.944 68.126C95.4969 68.6214 94.9563 69.0235 94.3532 69.3091C93.7501 69.5947 93.0965 69.7582 92.4299 69.7901C91.8704 69.817 91.3117 69.7208 90.7934 69.5083C90.275 69.2957 89.8096 68.9721 89.4299 68.5601V73.5601H86.4299V59.4201H89.4299V60.3701C89.8096 59.9582 90.275 59.6345 90.7934 59.422C91.3117 59.2095 91.8704 59.1133 92.4299 59.1401C93.0956 59.1722 93.7483 59.3353 94.3507 59.6203C94.9531 59.9053 95.4933 60.3065 95.9403 60.8008C96.3872 61.2951 96.7321 61.8728 96.9551 62.5008C97.1782 63.1288 97.2749 63.7947 97.2399 64.4601ZM94.2399 64.4601C94.228 63.9908 94.0788 63.5352 93.8105 63.1499C93.5423 62.7645 93.167 62.4663 92.731 62.2922C92.295 62.118 91.8175 62.0755 91.3576 62.17C90.8977 62.2646 90.4756 62.4919 90.1436 62.8239C89.8117 63.1558 89.5843 63.5779 89.4898 64.0378C89.3953 64.4977 89.4378 64.9752 89.6119 65.4112C89.7861 65.8472 90.0843 66.2226 90.4697 66.4908C90.855 66.759 91.3106 66.9083 91.7799 66.9201C92.1075 66.941 92.4357 66.8914 92.7425 66.7749C93.0493 66.6584 93.3277 66.4775 93.5588 66.2445C93.7899 66.0114 93.9685 65.7317 94.0825 65.4239C94.1966 65.1161 94.2434 64.7875 94.2199 64.4601H94.2399Z" fill="#D2D2D2"></path><path d="M106.58 66.48C106.58 68.8 104.58 69.79 102.38 69.79C101.501 69.8678 100.619 69.6808 99.8475 69.2531C99.0758 68.8254 98.4498 68.1765 98.05 67.39L100.67 65.9C100.776 66.2638 101.004 66.5802 101.315 66.7966C101.626 67.0131 102.002 67.1166 102.38 67.09C103.11 67.09 103.47 66.86 103.47 66.46C103.47 65.35 98.4701 65.94 98.4701 62.46C98.4701 60.26 100.33 59.15 102.47 59.15C103.26 59.126 104.041 59.3136 104.734 59.6934C105.427 60.0732 106.006 60.6313 106.41 61.31L103.78 62.69C103.664 62.4259 103.474 62.2012 103.232 62.0432C102.991 61.8852 102.709 61.8007 102.42 61.8C101.9 61.8 101.58 62 101.58 62.37C101.62 63.52 106.58 62.75 106.58 66.48Z" fill="#D2D2D2"></path><path d="M117.62 59.4199V69.4999H114.62V68.5599C114.271 68.9776 113.828 69.3068 113.328 69.5205C112.827 69.7343 112.283 69.8266 111.74 69.7899C109.74 69.7899 107.97 68.3399 107.97 65.6099V59.4199H110.97V65.1699C110.944 65.415 110.972 65.6628 111.053 65.8954C111.135 66.1281 111.267 66.3397 111.44 66.5149C111.614 66.6902 111.824 66.8246 112.055 66.9085C112.287 66.9924 112.535 67.0236 112.78 66.9999C113.88 66.9999 114.65 66.3599 114.65 64.9299V59.4199H117.62Z" fill="#D2D2D2"></path><path d="M134.96 63.3202V69.5002H131.96V63.5802C131.96 62.5802 131.47 61.9202 130.51 61.9202C129.55 61.9202 128.93 62.6302 128.93 63.8202V69.5002H125.93V63.5802C125.93 62.5802 125.45 61.9202 124.48 61.9202C123.51 61.9202 122.91 62.6302 122.91 63.8202V69.5002H119.91V59.4202H122.91V60.3502C123.223 59.9395 123.635 59.6136 124.106 59.4023C124.578 59.191 125.095 59.1009 125.61 59.1402C126.127 59.1151 126.642 59.2244 127.105 59.4575C127.568 59.6905 127.962 60.0394 128.25 60.4702C128.585 60.0198 129.028 59.6616 129.539 59.429C130.049 59.1964 130.61 59.0971 131.17 59.1402C133.45 59.1402 134.96 60.8002 134.96 63.3202Z" fill="#D2D2D2"></path><path d="M137.52 59.3599C138.757 59.3599 139.76 58.357 139.76 57.1199C139.76 55.8828 138.757 54.8799 137.52 54.8799C136.283 54.8799 135.28 55.8828 135.28 57.1199C135.28 58.357 136.283 59.3599 137.52 59.3599Z" fill="#D2D2D2"></path><path d="M73.52 47.1602C79.3135 47.1602 84.01 42.4636 84.01 36.6702C84.01 30.8767 79.3135 26.1802 73.52 26.1802C67.7266 26.1802 63.03 30.8767 63.03 36.6702C63.03 42.4636 67.7266 47.1602 73.52 47.1602Z" fill="#D2D2D2"></path><path d="M96.97 47.1602C102.763 47.1602 107.46 42.4636 107.46 36.6702C107.46 30.8767 102.763 26.1802 96.97 26.1802C91.1765 26.1802 86.48 30.8767 86.48 36.6702C86.48 42.4636 91.1765 47.1602 96.97 47.1602Z" fill="#D2D2D2"></path><path d="M60.5601 26.1802H39.5901V47.1502H60.5601V26.1802Z" fill="#D2D2D2"></path></svg>