<svg xmlns="http://www.w3.org/2000/svg" width="160" height="80" viewBox="0 0 160 80" fill="none"><g clip-path="url(#clip0)"><path fill-rule="evenodd" clip-rule="evenodd" d="M115.964 0.0522022C115.377 -0.0569017 114.765 -0.0112016 114.223 0.345299C113.097 1.08711 112.881 2.29547 112.632 3.19746C112.202 4.7554 112.358 6.31185 112.483 7.69851C112.732 10.4758 113.689 12.9987 114.114 15.4622C114.367 16.9354 114.591 18.4151 114.79 19.8984C114.01 21.7431 113.204 23.5761 112.411 25.3611C110.584 29.4721 108.486 33.488 106.476 37.5735C104.339 41.9159 102.383 46.3091 100.057 50.4605C98.4196 53.3827 97.466 55.2744 95.7725 57.4017C95.2556 58.051 94.3707 58.9782 94.0004 59.1514C93.6301 59.3245 93.3774 59.3457 93.2128 59.2883C93.0879 59.2449 92.9493 59.1107 92.7787 58.7374C92.6081 58.3642 92.4649 57.8355 92.2664 57.3072C91.4488 55.131 91.12 52.7164 90.9926 50.3029C90.9287 49.0918 91.0435 47.8497 91.1625 46.5994C92.2235 43.747 93.3212 40.9037 94.4552 38.0692C96.4656 33.0446 98.7808 28.1091 100.846 23.0331C101.94 20.3456 103.363 17.6459 104.109 14.6251C104.265 13.9952 104.546 13.2318 104.722 12.3999C104.898 11.568 104.971 10.6113 104.541 9.6908C104.037 8.61194 102.99 7.97762 101.859 7.89937C100.168 7.78228 98.8396 8.85596 97.8722 9.70835C96.3805 11.0229 95.6068 12.8077 94.863 14.3358C93.7292 16.6651 92.9777 19.1348 92.3434 21.5731C91.4235 25.1093 90.8915 28.7159 90.452 32.2911C90.0893 35.2403 90.0459 38.1688 89.837 41.0308C89.7132 42.7273 89.4865 44.4717 89.3125 46.2447C88.6667 47.9888 88.0174 49.7317 87.4252 51.4984C87.2294 52.0827 87.0892 52.6675 86.9057 53.254C86.4796 52.0602 85.9477 50.9629 85.6046 49.9682C85.2197 48.852 84.7833 47.8531 84.6234 46.8992C84.4657 45.9577 84.5433 43.4484 84.5433 43.4484C84.5865 42.4489 83.2373 42.0951 82.7846 42.9873C82.7846 42.9873 80.4908 47.5052 79.0665 49.7702C78.7685 50.2441 77.7523 51.548 77.242 52.1829C77.3971 51.3088 78.2328 48.6894 78.3297 48.0123C78.6236 45.958 79.348 43.9024 78.7738 43.1008C78.4239 42.6125 77.4776 42.1093 76.9764 42.9719C76.9764 42.9719 75.0177 46.3412 74.0604 48.0722C73.2868 49.4709 72.7544 50.5041 71.814 52.275C72.5332 48.2525 73.7631 44.2514 74.4789 40.0621C74.7649 38.3882 75.8291 36.2794 75.1519 34.0164C75.045 33.6592 74.8831 33.258 74.6022 32.8744C74.3214 32.4909 73.8554 32.0659 73.184 32.029C73.086 32.0236 73.0032 32.0554 72.909 32.0602C73.2588 30.6972 73.6315 29.3402 73.9088 27.9596C74.2472 26.2753 75.042 24.2835 74.5751 22.1418C74.2949 20.8559 73.635 19.6602 72.2581 18.8687C71.027 18.1609 69.6958 18.4815 68.7346 18.6978C66.6267 19.1722 64.8819 20.0505 63.2678 21.1584C60.4733 23.077 57.884 25.3734 55.7151 28.0038C54.4195 29.5749 53.3506 31.2903 52.365 33.045C51.8348 32.3534 51.2432 31.707 50.4977 31.1995C48.0745 29.5495 45.0422 29.7285 42.5676 29.6726C39.6226 29.6058 36.6907 30.1042 33.903 30.86C29.3836 32.0855 25.1269 34.0745 21.0394 36.1863C16.314 38.6273 12.3371 41.2588 8.07429 44.4175C5.05318 46.6562 0.871098 50.7907 0.510384 51.2202C-0.546429 52.4785 0.18657 53.7398 1.35754 52.673C1.77215 52.2952 5.86011 48.2239 8.65147 46.1554C12.8442 43.0487 17.2681 40.2277 21.8927 37.8386C25.9351 35.7503 30.0767 33.8244 34.3892 32.655C37.0574 31.9315 39.8189 31.4708 42.5254 31.532C45.0845 31.59 47.7119 31.5532 49.4505 32.7371C50.22 33.261 50.8422 34.036 51.3828 34.909C51.0688 35.5212 50.7163 36.1224 50.4202 36.7364C48.9998 39.6814 47.8678 42.7747 47.0209 45.9266C45.8115 50.428 45.0943 55.0505 44.6524 59.6594C44.3513 62.8002 43.9722 66.2303 44.4833 69.7127C44.5831 70.3924 44.8867 71.31 45.2972 72.1658C45.5025 72.5937 45.7579 73.0126 46.1354 73.363C46.513 73.7132 47.0481 73.9821 47.6394 74.0045C48.2182 74.0263 48.7624 73.7894 49.141 73.4675C49.5194 73.1458 49.7729 72.7587 49.9852 72.3686C50.4097 71.5885 50.7465 70.7685 50.9327 70.2384C52.2808 66.4007 53.316 62.8639 54.0561 59.2194C54.8636 55.2433 55.5016 51.174 55.5898 47.0629C55.6521 44.1629 55.8079 41.0211 54.819 38.0366C54.4791 37.0113 54.0198 35.9319 53.4922 34.8929C54.5724 32.8736 55.729 30.9108 57.1503 29.1871C59.1948 26.7077 61.6556 24.5209 64.321 22.6911C65.903 21.605 67.469 20.8887 69.1432 20.512C70.0398 20.3102 70.9118 20.2398 71.3316 20.481C71.9663 20.8459 72.5438 21.5568 72.7577 22.5382C73.0684 23.9642 72.4669 25.6975 72.086 27.5933C71.7075 29.477 71.2326 31.3452 70.718 33.2033C70.5722 33.3534 70.3841 33.4732 70.2587 33.6288C69.5883 34.4605 69.0633 35.3916 68.5925 35.9711C66.7566 38.2302 65.3934 40.7831 64.109 43.2748C62.3109 46.7628 60.6765 50.3841 59.4816 54.1641C58.8961 56.0158 58.3336 57.4543 58.1621 59.0694C58.0231 60.378 59.1635 60.6566 59.9629 60.2128C60.7622 59.7691 61.0997 59.169 61.7235 58.3562C63.0589 56.6167 64.1619 54.7284 65.1495 52.8218C67.2033 48.8572 68.9036 44.718 70.3767 40.5269C71.1206 38.4103 71.8017 36.2643 72.4124 34.0967C72.6197 33.9555 72.8196 33.8887 73.0285 33.8884C73.0184 33.8778 73.0306 33.8835 73.0814 33.8863C73.0634 33.8853 73.0462 33.8884 73.0285 33.8884C73.0367 33.8971 73.0577 33.914 73.1011 33.9735C73.1979 34.1056 73.311 34.3514 73.3704 34.5498C73.7761 35.9055 72.9956 37.6996 72.6455 39.749C71.9277 43.9494 70.5932 48.1208 69.8639 52.4991C69.6004 54.0812 69.2076 56.1656 69.1396 56.9103C69.0472 57.924 70.7663 58.602 71.2391 57.7006C71.5864 57.0384 74.122 51.8043 75.6886 48.9719C75.9062 48.5782 76.0732 48.3026 76.3655 47.7886C76.2889 48.4569 76.1888 49.0027 76.0636 49.6029C75.7607 51.0565 74.9982 52.9625 74.9786 53.9232C74.9513 55.2649 76.4041 56.4124 77.5494 55.2274C78.2173 54.5363 79.4825 52.6017 80.6406 50.7599C81.5002 49.393 81.9778 48.3823 82.77 46.8781C82.783 46.9825 82.7732 47.1098 82.7895 47.2069C83.0016 48.4732 83.4984 49.5632 83.8474 50.575C84.4425 52.3007 85.3521 53.7072 85.5508 55.077C85.6578 55.8153 85.6922 56.5673 85.7027 57.3234C85.0646 59.5668 84.3964 61.821 83.7194 64.0267C82.8794 66.764 81.7158 69.5006 81.0398 72.4618C80.564 74.5454 79.9685 76.3443 80.1846 78.464C80.2456 79.0636 81.2774 79.8197 81.8911 79.0608C82.3133 78.5388 83.5666 76.5136 84.2345 74.8692C85.4135 71.9666 86.133 68.9069 86.6389 65.8704C87.0864 63.1845 87.5958 60.3752 87.5802 57.5313C88.0991 55.7145 88.5942 53.8653 89.1895 52.0897C89.2195 52 89.2551 51.9118 89.2853 51.8221C89.4665 53.8868 89.7792 55.9731 90.5259 57.9606C90.673 58.3522 90.8216 58.9281 91.0876 59.5101C91.3538 60.092 91.7975 60.764 92.6008 61.0441C93.3941 61.3206 94.1717 61.1242 94.789 60.8355C95.4061 60.5467 96.3238 59.5932 96.9519 58.8398C98.8388 56.5763 100.175 54.0551 101.679 51.3698C104.061 47.1188 106.029 42.6938 108.145 38.3944C110.142 34.3362 112.24 30.0945 114.048 25.8376C114.438 24.9188 114.812 24.002 115.176 23.0824C115.234 23.6035 115.292 24.1247 115.344 24.6463C115.519 26.413 115.611 28.1264 115.748 29.9789C115.815 30.8707 115.862 31.8445 115.956 32.7174C113.94 35.0623 111.879 37.3619 109.92 39.8458C108.626 41.4866 107.778 42.641 106.202 44.9119C105.786 45.5119 105.729 46.2029 105.803 46.8062C105.877 47.4095 106.233 48.1083 106.667 48.6178C107.227 49.2764 107.909 49.8051 108.798 50.0953C110.133 50.5306 111.66 50.7436 113.038 50.2828C114.38 49.8338 115.293 48.8592 116.078 47.7942C117.038 46.4903 117.21 45.0014 117.494 43.6556C117.91 41.6858 118.031 39.7338 118.011 37.8561C117.994 36.3281 118.047 34.7928 117.888 33.3204C118.547 32.5423 119.229 31.7934 119.86 30.9826C120.043 30.7482 120.318 30.3406 120.511 30.0873C120.231 30.7654 119.898 31.4136 119.679 32.1234C119.175 33.766 118.844 35.5162 118.867 37.2866C118.876 38.0401 118.738 39.1842 119.486 40.1942C119.984 40.867 120.426 41.5433 121.505 41.3986C122.381 41.281 123.14 40.6256 123.561 40.1246C123.982 39.6237 124.491 39.1589 124.765 38.882C125.647 37.9928 126.992 36.368 127.842 35.3728C127.8 35.7387 127.575 36.6278 127.635 37.2566C127.674 37.6639 127.717 38.0437 127.999 38.429C128.28 38.8143 128.703 39.201 129.311 39.3153C130.094 39.4628 130.756 39.108 131.211 38.7713C131.668 38.4347 132.022 38.0676 132.282 37.8668C133.668 36.7893 134.783 35.4753 135.824 34.2053C136.481 33.4034 136.99 32.5731 137.462 31.8438C137.73 32.1833 138.024 32.5753 138.094 32.7309C138.424 33.4708 138.442 34.5031 138.611 35.6655C138.722 36.4371 138.756 37.1803 138.851 37.9408C138.464 38.4233 138.064 38.9072 137.694 39.38C136.553 40.8407 135.501 42.3896 134.598 44.0264C133.438 46.1342 132.257 48.3506 131.586 50.7927C131.018 52.8614 130.143 55.3166 130.828 57.7885C131.183 59.0651 131.99 60.3923 133.364 61.0059C134.436 61.4845 135.587 61.2793 136.495 60.8099C137.828 60.1207 138.54 58.8355 139.072 57.7702C139.932 56.0492 140.102 54.1931 140.349 52.546C140.914 48.7777 141.139 44.9501 141.057 41.1467C141.037 40.2461 140.878 39.3947 140.78 38.516C141.504 37.6574 142.613 36.7169 143.449 36.0645C145.554 34.4217 147.625 33.2582 150.161 32.3928C151.978 31.7727 153.81 31.1949 155.375 31.484C155.793 31.5612 156.258 31.6855 156.587 31.8461C157.787 32.3881 156.502 33.8526 156.128 34.2837C155.408 35.0698 154.601 35.6216 153.673 36.332C152.316 37.372 151.107 38.2064 149.668 38.8559C148.585 39.3451 148.009 39.6935 146.249 39.8616C144.933 39.9872 144.791 41.1355 146.252 41.1998C148.03 41.2779 148.505 41.19 150.447 40.4585C152.268 39.7724 153.771 38.7799 154.946 37.869C155.866 37.1648 156.949 36.4361 157.7 35.4816C158.111 34.9614 158.419 34.3495 158.613 33.7167C158.813 33.0708 159.123 32.522 158.856 31.7041C158.605 30.9296 157.986 30.4603 157.404 30.1754C156.821 29.8904 156.218 29.7488 155.713 29.6557C153.501 29.2469 151.379 30.0124 149.559 30.6332C146.833 31.5643 144.584 32.8201 142.306 34.5985C141.776 35.0118 140.985 35.6353 140.526 36.1042C140.492 35.8737 140.485 35.6279 140.451 35.3989C140.311 34.4275 140.341 33.2019 139.792 31.973C139.529 31.3846 139.111 30.8824 138.742 30.4471C138.373 30.012 138.048 29.6785 138.048 29.6785C137.63 29.249 136.919 29.3228 136.598 29.8293C136.598 29.8293 135.136 32.1121 134.386 33.0269C133.362 34.2768 132.327 35.4763 131.14 36.398C130.724 36.7214 130.386 37.0683 130.106 37.2747C129.827 37.4809 129.712 37.4985 129.655 37.4879C129.674 37.4915 129.604 37.4715 129.502 37.3323C129.4 37.1931 129.3 36.9648 129.256 36.7859C129.14 36.3096 129.526 35.4854 129.838 34.3804C130.308 32.7238 131.715 29.2394 131.715 29.2394C132.158 28.1482 130.585 27.413 130.032 28.4531C130.032 28.4531 127.967 32.309 126.794 33.8923C125.838 35.1828 124.65 36.3576 123.445 37.5717C122.961 38.0594 122.581 38.4283 122.272 38.7963C121.746 39.3496 121.45 39.3977 120.98 39.0879C120.774 38.8087 120.737 38.1129 120.726 37.2624C120.707 35.7407 120.995 34.174 121.457 32.6695C122.261 30.0538 123.475 27.5412 124.864 25.0179C125.642 23.6047 126.82 21.7377 128.026 19.8977C129.198 19.3839 130.411 18.9057 131.624 18.3981C133.81 17.4847 135.865 16.7126 138.116 15.9746C140.482 15.1991 142.861 14.4238 145.248 13.6902C146.225 13.3896 146.149 12.2625 145.131 12.2669C145.017 12.2558 144.902 12.2659 144.79 12.297C144.79 12.297 140.154 13.4447 137.65 14.2657C135.353 15.0185 133.139 15.7492 130.907 16.6822C130.574 16.8218 130.231 16.9601 129.893 17.0985C131.437 14.8187 132.714 13.003 132.724 12.9873L132.737 12.9693V12.9683C133.389 11.9539 131.909 10.9427 131.201 11.9194L131.2 11.9202C131.2 11.9202 128.275 15.5808 126.856 17.7109C126.672 17.9875 126.484 18.3 126.29 18.6373C125.354 19.0765 124.43 19.5602 123.539 20.1239C122.564 20.7398 121.626 21.4766 120.829 22.3671C119.943 23.358 119.109 24.8744 119.109 24.8744C118.493 25.9633 120.236 26.7704 120.833 25.6703C120.833 25.6703 121.7 24.1842 122.215 23.6079C122.858 22.8891 123.647 22.2608 124.496 21.7211C123.271 23.7118 121.471 26.3209 118.392 29.8402C118.137 30.1318 117.873 30.4399 117.628 30.7418C117.604 30.4789 117.568 30.2079 117.548 29.9463C117.416 28.1606 117.237 26.2664 117.052 24.4027C116.896 22.8336 116.696 21.2714 116.467 19.713C117.124 17.9514 117.767 16.1705 118.426 14.3384C119.131 12.3796 119.648 10.7801 120.089 8.61631C120.33 7.43443 120.268 6.23403 120.239 5.4047C120.212 4.61823 119.466 4.6037 119.409 5.39428C119.331 6.48709 119.22 7.0253 119.056 7.83291C118.659 9.78471 118.003 11.5963 117.286 13.5895C116.891 14.6865 116.464 15.7919 116.023 16.8982C115.925 16.3029 115.826 15.7073 115.724 15.1118C115.259 12.4128 114.555 9.97266 114.335 7.53245C114.211 6.14899 114.115 4.8155 114.425 3.6924C114.655 2.85758 114.93 2.26539 115.308 2.0164C115.595 1.82716 116.232 1.70807 116.551 1.78967C116.959 1.89371 117.244 2.0835 117.558 2.47432C117.947 2.95869 118.136 3.19505 118.421 3.55875C118.895 4.16263 119.548 3.86941 119.297 3.2434C119.071 2.68026 118.974 2.30972 118.593 1.78177C118.021 0.988463 117.524 0.635942 116.969 0.381616C116.657 0.23841 116.315 0.117661 115.963 0.052199L115.964 0.0522022ZM101.731 9.75465C102.117 9.78142 102.716 10.1791 102.855 10.4779C103.038 10.8699 103.04 11.3682 102.903 12.0154C102.766 12.6627 102.495 13.4024 102.303 14.1786C101.629 16.9087 100.263 19.5335 99.1236 22.3328C97.0824 27.349 95.0694 31.8037 93.0323 36.8951C92.7142 37.6902 91.7563 40.2132 91.4406 41.0104C91.5851 38.5601 92.0073 34.8821 92.2979 32.5181C92.7338 28.973 93.2575 25.4484 94.1437 22.0418C94.7648 19.6547 95.4868 17.3038 96.5352 15.1499C97.2956 13.5876 98.0156 12.0619 99.1025 11.1041C99.9684 10.341 100.985 9.70303 101.731 9.75465ZM116.176 35.3498C116.248 36.1802 116.339 37.0143 116.348 37.8316C116.368 39.7077 116.379 41.5465 116.019 43.2499C115.741 44.5676 115.418 45.8326 114.764 46.7205C114.167 47.5308 113.154 48.3926 112.288 48.6824C111.362 48.9921 110.446 48.9464 109.49 48.6853C108.857 48.5125 108.432 48.3278 108.008 47.9831C107.708 47.7389 107.36 47.4405 107.307 47.0567C107.253 46.672 107.666 46.0646 107.731 45.9712C109.296 43.7145 110.103 42.6159 111.38 40.9975C112.894 39.0778 114.534 37.2231 116.176 35.3498ZM139.131 40.5677C139.14 40.7715 139.193 40.9846 139.196 41.1876C139.277 44.8907 139.057 48.6126 138.509 52.2696C138.254 53.9767 138.064 55.6259 137.408 56.9394C136.924 57.9082 136.327 58.8024 135.64 59.1573C135.168 59.4017 134.469 59.4618 134.122 59.307C133.486 59.0226 132.856 58.1378 132.62 57.2914C132.14 55.5582 132.793 53.4236 133.38 51.2845C133.978 49.1059 135.077 47.0128 136.228 44.9242C137.067 43.4028 138.054 41.9499 139.131 40.5677ZM69.0424 38.5935C68.8946 39.0301 68.7746 39.475 68.6218 39.9097C67.1701 44.0399 65.5019 48.0996 63.4985 51.9669C62.7317 53.4472 61.6767 55.3837 60.741 56.7297C60.8841 56.0757 61.0335 55.3777 61.2548 54.7242C62.4861 51.0884 63.9935 47.5565 65.7615 44.1268C66.7599 42.19 67.836 40.3288 69.0424 38.5935ZM52.3717 37.02C52.595 37.5613 52.8709 38.07 53.0536 38.621C53.8983 41.1701 53.7929 44.0948 53.73 47.0229C53.6454 50.9676 53.03 54.9286 52.2338 58.849C51.4859 62.5315 50.545 65.8739 49.265 69.4166C48.9968 70.1586 48.6533 70.9264 48.3521 71.4798C48.2015 71.7564 48.0454 71.9577 47.936 72.0507C47.8266 72.1438 47.8053 72.1487 47.7089 72.145C47.5875 72.1404 47.5273 72.1168 47.4009 71.9996C47.2745 71.8823 47.1167 71.6582 46.9744 71.3616C46.6897 70.7682 46.3855 69.9434 46.2742 69.2123C45.8406 66.3646 46.187 63.1444 46.5042 59.8369C46.9392 55.3006 47.6428 50.7793 48.8172 46.4083C49.6353 43.3635 50.7283 40.3792 52.0954 37.5447C52.1816 37.3661 52.2845 37.1981 52.3717 37.02Z" fill="white"></path></g><defs><clipPath id="clip0"><rect width="160" height="79.3798" fill="white"></rect></clipPath></defs></svg>